<svg width="26" height="25" viewBox="0 0 26 25" fill="none" xmlns="http://www.w3.org/2000/svg">
	<path d="M12.1359 1.48359C12.5216 0.82132 13.4784 0.821321 13.8641 1.48359L17.3042 7.38978C17.4455 7.63239 17.6822 7.80441 17.9566 7.86383L24.6368 9.3104C25.3858 9.4726 25.6815 10.3825 25.1708 10.954L20.6167 16.0508C20.4297 16.2602 20.3392 16.5385 20.3675 16.8179L21.056 23.6181C21.1332 24.3806 20.3592 24.943 19.6579 24.6339L13.4032 21.8777C13.1463 21.7645 12.8537 21.7645 12.5968 21.8777L6.34212 24.6339C5.64078 24.943 4.86675 24.3806 4.94396 23.6181L5.63247 16.8179C5.66076 16.5385 5.57032 16.2602 5.38325 16.0508L0.829159 10.954C0.318505 10.3825 0.614158 9.4726 1.36321 9.3104L8.04337 7.86383C8.31776 7.80441 8.55454 7.63239 8.69584 7.38978L12.1359 1.48359Z" fill="#CDCDD5"/>
</svg>
